<?xml version="1.0" standalone="no"?>
<!DOCTYPE svg PUBLIC "-//W3C//DTD SVG 20010904//EN"
 "http://www.w3.org/TR/2001/REC-SVG-20010904/DTD/svg10.dtd">
<svg version="1.0" xmlns="http://www.w3.org/2000/svg"
 width="635.000000pt" height="635.000000pt" viewBox="0 0 635.000000 635.000000"
 preserveAspectRatio="xMidYMid meet">
<metadata>
Created by potrace 1.11, written by Peter Selinger 2001-2013
</metadata>
<g transform="translate(0.000000,635.000000) scale(0.100000,-0.100000)"
fill="#000000" stroke="none">
<path d="M245 6274 c-46 -24 -73 -53 -90 -98 -14 -37 -15 -345 -13 -2971 l3
-2930 26 -55 c39 -82 90 -135 167 -172 l67 -33 2755 0 2755 0 67 33 c77 37
128 90 167 172 l26 55 3 2733 2 2732 -97 93 c-54 52 -185 175 -292 275 l-194
182 -269 0 -268 0 0 -62 c-1 -96 -35 -128 -139 -128 l-61 0 0 95 0 95 -1844 0
-1844 0 -5 -27 c-3 -16 -6 -44 -6 -63 -2 -43 -24 -78 -57 -90 -37 -15 -327
-13 -359 2 -37 17 -55 57 -55 123 l0 55 -207 0 c-169 0 -214 -3 -238 -16z
m4525 -1089 l0 -1015 -1630 0 -1630 0 0 1015 0 1015 1630 0 1630 0 0 -1015z
m351 -1530 c54 -19 96 -58 120 -110 18 -38 19 -101 19 -1533 0 -1646 5 -1530
-62 -1599 -66 -68 85 -63 -2118 -61 -1880 3 -1997 4 -2027 21 -41 22 -78 59
-100 100 -17 30 -18 123 -21 1511 -2 1303 -1 1486 13 1530 15 50 30 73 72 109
55 48 -28 46 2079 47 1759 0 1986 -2 2025 -15z m680 -2764 c15 -19 19 -40 19
-112 0 -127 -3 -129 -165 -129 -163 0 -165 2 -165 133 0 132 7 137 178 134
106 -2 115 -4 133 -26z"/>
<path d="M3540 5230 l0 -850 380 0 380 0 0 850 0 850 -380 0 -380 0 0 -850z"/>
</g>
</svg>
